<svg width="156" height="43" viewBox="0 0 156 43" fill="none" xmlns="http://www.w3.org/2000/svg">
<path d="M33.7398 14.6903C29.9598 14.6903 28.4998 16.0395 28.4998 19.6395V22.8603C28.4998 26.4503 29.9598 27.7997 33.7398 27.7997H41.9798C42.2598 27.7997 42.4098 27.6695 42.4098 27.3895V25.6103C42.4098 25.3303 42.2598 25.2001 41.9798 25.2001H33.7998C31.8498 25.2001 31.3098 24.6203 31.3098 22.6503V22.33H41.8798C42.1698 22.33 42.2998 22.1998 42.2998 21.9198V20.4403C42.2998 20.1603 42.1698 20.0302 41.8798 20.0302H31.3098V19.8397C31.3098 17.8397 31.8498 17.2997 33.7998 17.2997H41.9798C42.0377 17.3099 42.0971 17.3063 42.1532 17.289C42.2094 17.2716 42.2605 17.2411 42.3026 17.2001C42.3446 17.1591 42.3762 17.1083 42.3949 17.0526C42.4135 16.9969 42.4187 16.9379 42.4098 16.8798V15.1103C42.4165 15.0526 42.4099 14.994 42.3905 14.9394C42.371 14.8847 42.3394 14.8354 42.2979 14.7948C42.2564 14.7543 42.2061 14.7231 42.151 14.705C42.0959 14.6869 42.0373 14.6823 41.9798 14.6903H33.7398ZM1.73983 14.6903C0.40983 14.6903 0.079834 15.2195 0.079834 16.6395V27.3895C0.079834 27.6695 0.229834 27.7997 0.509834 27.7997H2.38983C2.44562 27.8082 2.50262 27.8036 2.55624 27.786C2.60985 27.7684 2.65858 27.738 2.69848 27.6981C2.73838 27.6582 2.76834 27.6102 2.78595 27.5565C2.80356 27.5029 2.80831 27.4453 2.79984 27.3895V17.6103C2.79984 17.4803 2.79983 17.4296 2.94983 17.4296H3.11983C3.17109 17.4224 3.22325 17.4334 3.26715 17.4608C3.31105 17.4883 3.34387 17.5307 3.35983 17.58L7.13983 25.9599C7.75983 27.3099 8.27983 27.7997 9.53983 27.7997H10.4398C11.6898 27.7997 12.2198 27.3099 12.8298 25.9599L16.6098 17.58C16.6278 17.5299 16.6625 17.4872 16.708 17.4599C16.7536 17.4325 16.8072 17.4219 16.8598 17.4296H17.0298C17.1398 17.4296 17.1798 17.4303 17.1798 17.6103V27.3895C17.1714 27.4453 17.1761 27.5029 17.1937 27.5565C17.2113 27.6102 17.2413 27.6582 17.2812 27.6981C17.3211 27.738 17.3698 27.7684 17.4234 27.786C17.477 27.8036 17.534 27.8082 17.5898 27.7997H19.4998C19.7798 27.7997 19.9298 27.6695 19.9298 27.3895V16.6395C19.9298 15.2195 19.5898 14.6903 18.2798 14.6903H16.2798C15.1698 14.6903 14.7998 14.94 14.2798 16.12L10.3898 25.12C10.372 25.1735 10.3366 25.219 10.2894 25.2499C10.2422 25.2808 10.186 25.2951 10.1298 25.2899H9.89983C9.84367 25.2951 9.78742 25.2808 9.74022 25.2499C9.69302 25.219 9.65764 25.1735 9.63983 25.12L5.74983 16.12C5.23983 14.94 4.86983 14.6903 3.74983 14.6903H1.73983Z" fill="#2F374C"/>
<path d="M146.04 17.4804C146.059 17.441 146.089 17.4077 146.126 17.3847C146.163 17.3616 146.206 17.349 146.25 17.3495H146.39C146.432 17.3483 146.474 17.3605 146.51 17.3837C146.546 17.4069 146.574 17.441 146.59 17.4804L149.59 22.9696H143.15L146.04 17.4804ZM145.63 14.6903C144.84 14.6903 144.28 14.99 143.63 16.12L137.49 27.37C137.36 27.61 137.42 27.7997 137.73 27.7997H140.17C140.258 27.8117 140.347 27.7951 140.425 27.7519C140.502 27.7086 140.564 27.6406 140.6 27.5595L141.89 25.1395H150.69L152.02 27.5595C152.053 27.6428 152.114 27.713 152.192 27.7567C152.271 27.8005 152.362 27.8153 152.45 27.7997H154.83C155.13 27.7997 155.18 27.61 155.05 27.37L148.85 16.12C148.693 15.6819 148.399 15.3064 148.012 15.0487C147.625 14.7911 147.164 14.6653 146.7 14.6903H145.63ZM118.43 14.6903C118.372 14.6823 118.314 14.6869 118.259 14.705C118.204 14.7231 118.153 14.7543 118.112 14.7948C118.07 14.8354 118.039 14.8847 118.019 14.9394C118 14.994 117.993 15.0526 118 15.1103V16.9403C117.994 16.9983 118 17.0562 118.02 17.1112C118.039 17.1663 118.071 17.2164 118.112 17.2577C118.153 17.299 118.203 17.3311 118.258 17.3505C118.313 17.3699 118.372 17.3763 118.43 17.37H124.31V27.37C124.301 27.4258 124.306 27.4824 124.324 27.536C124.341 27.5896 124.371 27.6387 124.411 27.6786C124.451 27.7185 124.5 27.7489 124.553 27.7665C124.607 27.7841 124.664 27.7887 124.72 27.7802H126.72C126.776 27.7887 126.833 27.7841 126.886 27.7665C126.94 27.7489 126.989 27.7185 127.028 27.6786C127.068 27.6387 127.098 27.5896 127.116 27.536C127.134 27.4824 127.138 27.4258 127.13 27.37V17.37H133.01C133.068 17.3763 133.127 17.3699 133.182 17.3505C133.237 17.3311 133.287 17.299 133.328 17.2577C133.369 17.2164 133.401 17.1663 133.42 17.1112C133.439 17.0562 133.446 16.9983 133.44 16.9403V15.1103C133.447 15.0526 133.44 14.994 133.42 14.9394C133.401 14.8847 133.369 14.8354 133.328 14.7948C133.286 14.7543 133.236 14.7231 133.181 14.705C133.126 14.6869 133.067 14.6823 133.01 14.6903H118.43ZM104.89 17.4804C104.91 17.4417 104.94 17.4085 104.977 17.3856C105.014 17.3627 105.056 17.3501 105.1 17.3495H105.21C105.254 17.349 105.297 17.3616 105.334 17.3847C105.371 17.4077 105.401 17.441 105.42 17.4804L108.42 22.9696H101.98L104.89 17.4804ZM104.48 14.6903C103.7 14.6903 103.13 14.99 102.48 16.12L96.3398 27.37C96.1998 27.61 96.2599 27.7997 96.5799 27.7997H99.0098C99.098 27.8134 99.1882 27.7973 99.2662 27.7538C99.3441 27.7103 99.4052 27.6417 99.4399 27.5595L100.73 25.1395H109.53L110.86 27.5595C110.894 27.6417 110.956 27.7103 111.034 27.7538C111.111 27.7973 111.202 27.8134 111.29 27.7997H113.67C113.97 27.7997 114.03 27.61 113.9 27.37L107.7 16.12C107.542 15.6828 107.248 15.3081 106.861 15.0507C106.474 14.7932 106.014 14.667 105.55 14.6903H104.48Z" fill="#2F374C"/>
<path d="M59.7298 0.0898438H69.4898C81.5998 0.0898438 91.4898 9.61 91.4898 21.25C91.4898 32.89 81.5898 42.4102 69.4898 42.4102H48.9498V39.5898V10.5303H68.2798C69.7146 10.468 71.1471 10.697 72.491 11.2031C73.835 11.7093 75.0625 12.4814 76.0998 13.4746C77.137 14.4678 77.9625 15.6617 78.5264 16.9824C79.0903 18.3032 79.381 19.7241 79.381 21.1602C79.381 22.5962 79.0903 24.0171 78.5264 25.3379C77.9625 26.6586 77.137 27.8515 76.0998 28.8447C75.0625 29.8379 73.835 30.611 72.491 31.1172C71.1471 31.6233 69.7146 31.8523 68.2798 31.79H59.7098V16.79H62.6398V29H68.6398C69.6936 29.0376 70.7442 28.8627 71.7288 28.4854C72.7135 28.108 73.612 27.5359 74.3708 26.8037C75.1296 26.0715 75.7331 25.1942 76.1453 24.2236C76.5575 23.2531 76.77 22.2097 76.77 21.1553C76.77 20.1008 76.5575 19.0565 76.1453 18.0859C75.7331 17.1154 75.1296 16.238 74.3708 15.5059C73.612 14.7737 72.7135 14.2025 71.7288 13.8252C70.7442 13.4479 69.6936 13.2719 68.6398 13.3096H51.8398V39.5996H69.7598C80.2498 39.5996 88.8398 31.3498 88.8398 21.2598C88.8398 11.1698 80.2498 2.91016 69.7598 2.91016H62.5998V6.57031H59.6698V2.91016L59.7298 0.0898438Z" fill="#FF0076"/>
</svg>
