<svg width="155" height="43" viewBox="0 0 155 43" fill="none" xmlns="http://www.w3.org/2000/svg">
<path d="M33.95 15C30.17 15 28.73 16.36 28.73 20V23.22C28.73 26.82 30.19 28.16 33.97 28.16H42.2C42.48 28.16 42.63 28.03 42.63 27.75V25.92C42.63 25.64 42.48 25.51 42.2 25.51H34.02C32.08 25.51 31.53 24.93 31.53 22.96V22.65H42.11C42.1658 22.6585 42.2228 22.6537 42.2764 22.6361C42.33 22.6185 42.3788 22.5885 42.4187 22.5486C42.4586 22.5087 42.4885 22.46 42.5061 22.4064C42.5238 22.3528 42.5285 22.2958 42.52 22.24V20.75C42.5285 20.6942 42.5238 20.6372 42.5061 20.5836C42.4885 20.53 42.4586 20.4813 42.4187 20.4414C42.3788 20.4015 42.33 20.3715 42.2764 20.3539C42.2228 20.3363 42.1658 20.3315 42.11 20.34H31.51V20.16C31.51 18.16 32.06 17.61 34 17.61H42.18C42.46 17.61 42.61 17.48 42.61 17.2V15.42C42.61 15.14 42.46 15.01 42.18 15.01L33.95 15ZM1.95003 15C0.620027 15 0.280029 15.52 0.280029 17V27.7C0.280029 27.98 0.43003 28.11 0.71003 28.11H2.62003C2.67582 28.1185 2.73282 28.1137 2.78643 28.0961C2.84004 28.0785 2.88877 28.0485 2.92867 28.0086C2.96858 27.9687 2.99854 27.92 3.01614 27.8664C3.03375 27.8128 3.03851 27.7558 3.03003 27.7V17.93C3.03003 17.8 3.03002 17.74 3.18002 17.74H3.35003C3.40261 17.7323 3.45625 17.743 3.50183 17.7703C3.54741 17.7977 3.58211 17.84 3.60003 17.89L7.38003 26.28C8.00003 27.62 8.52003 28.11 9.77003 28.11H10.67C11.93 28.11 12.45 27.62 13.07 26.28L16.85 17.89C16.866 17.8408 16.8988 17.7987 16.9427 17.7713C16.9866 17.7439 17.0388 17.7328 17.09 17.74H17.26C17.37 17.74 17.41 17.8 17.41 17.93V27.7C17.4015 27.7558 17.4063 27.8128 17.4239 27.8664C17.4415 27.92 17.4715 27.9687 17.5114 28.0086C17.5513 28.0485 17.6 28.0785 17.6536 28.0961C17.7072 28.1137 17.7642 28.1185 17.82 28.11H19.73C20.01 28.11 20.16 27.98 20.16 27.7V17C20.16 15.57 19.83 15 18.52 15H16.52C15.42 15 15.04 15.24 14.52 16.42L10.62 25.42C10.6038 25.4738 10.5683 25.5199 10.5204 25.5494C10.4725 25.5788 10.4154 25.5897 10.36 25.58H10.14C10.0846 25.5897 10.0276 25.5788 9.97965 25.5494C9.93174 25.5199 9.8963 25.4738 9.88003 25.42L5.98003 16.42C5.48003 15.24 5.10003 15 3.98003 15H1.95003Z" fill="white"/>
<path d="M145.54 17.7998C145.555 17.7595 145.583 17.7251 145.619 17.7017C145.655 17.6783 145.697 17.6671 145.74 17.6698H145.85C145.894 17.6665 145.938 17.6773 145.976 17.7007C146.014 17.724 146.043 17.7587 146.06 17.7998L149.06 23.2798H142.62L145.54 17.7998ZM145.12 14.9998C144.34 14.9998 143.78 15.2998 143.12 16.4198L136.98 27.6698C136.85 27.9198 136.9 28.0998 137.22 28.0998H139.73C139.818 28.1135 139.908 28.0973 139.986 28.0538C140.064 28.0103 140.125 27.942 140.16 27.8598L141.45 25.4398H150.25L151.58 27.8598C151.67 28.0498 151.76 28.0998 152.01 28.0998H154.38C154.68 28.0998 154.74 27.9198 154.61 27.6698L148.41 16.4198C148.248 15.9802 147.948 15.6047 147.555 15.3489C147.162 15.0932 146.698 14.9707 146.23 14.9998H145.12ZM117.92 14.9998C117.64 14.9998 117.49 15.1298 117.49 15.4098V17.2398C117.482 17.2986 117.488 17.3584 117.506 17.4147C117.525 17.4711 117.556 17.5224 117.598 17.5648C117.639 17.6073 117.69 17.6397 117.745 17.6596C117.801 17.6795 117.861 17.6864 117.92 17.6798H123.8V27.6798C123.792 27.7356 123.796 27.7926 123.814 27.8462C123.832 27.8998 123.861 27.9485 123.901 27.9885C123.941 28.0284 123.99 28.0583 124.044 28.0759C124.097 28.0935 124.154 28.0983 124.21 28.0898H126.21C126.5 28.0898 126.63 27.9598 126.63 27.6798V17.6798H132.5C132.56 17.6881 132.621 17.6825 132.678 17.6633C132.735 17.6441 132.787 17.6119 132.83 17.5693C132.872 17.5267 132.904 17.4747 132.923 17.4175C132.943 17.3604 132.948 17.2995 132.94 17.2398V15.4198C132.94 15.1398 132.79 15.0098 132.5 15.0098L117.92 14.9998ZM104.39 17.7998C104.407 17.7587 104.436 17.724 104.474 17.7007C104.512 17.6773 104.556 17.6665 104.6 17.6698H104.73C104.773 17.6671 104.816 17.6783 104.852 17.7017C104.888 17.7251 104.915 17.7595 104.93 17.7998L107.93 23.2798H101.49L104.39 17.7998ZM103.98 14.9998C103.19 14.9998 102.63 15.2998 101.98 16.4198L95.84 27.6698C95.71 27.9198 95.77 28.0998 96.09 28.0998H98.52C98.6082 28.1135 98.6984 28.0973 98.7763 28.0538C98.8542 28.0103 98.9154 27.942 98.95 27.8598L100.24 25.4398H109.04L110.37 27.8598C110.46 28.0498 110.56 28.0998 110.8 28.0998H113.18C113.48 28.0998 113.53 27.9198 113.4 27.6698L107.21 16.4198C107.05 15.9887 106.758 15.6193 106.375 15.3642C105.993 15.1092 105.539 14.9816 105.08 14.9998H103.98Z" fill="white"/>
<path d="M60.64 0.399902H70.41C82.51 0.399902 92.41 9.9199 92.41 21.5599C92.41 33.1999 82.5 42.7199 70.41 42.7199H49.86V39.9099V10.8399H69.18C70.6147 10.7777 72.0472 11.0065 73.3912 11.5126C74.7351 12.0188 75.9627 12.7917 76.9999 13.785C78.0372 14.7782 78.8626 15.9711 79.4265 17.2918C79.9905 18.6126 80.2812 20.0338 80.2812 21.4699C80.2812 22.906 79.9905 24.3272 79.4265 25.648C78.8626 26.9687 78.0372 28.1616 76.9999 29.1548C75.9627 30.1481 74.7351 30.921 73.3912 31.4272C72.0472 31.9333 70.6147 32.1621 69.18 32.0999H60.61V17.0999H63.54V29.2999H69.54C70.6029 29.3536 71.6656 29.1906 72.6635 28.8209C73.6614 28.4511 74.5737 27.8823 75.345 27.149C76.1163 26.4157 76.7304 25.5333 77.1501 24.5553C77.5697 23.5772 77.7861 22.5241 77.7861 21.4599C77.7861 20.3957 77.5697 19.3426 77.1501 18.3646C76.7304 17.3865 76.1163 16.5041 75.345 15.7708C74.5737 15.0375 73.6614 14.4687 72.6635 14.0989C71.6656 13.7292 70.6029 13.5662 69.54 13.6199H52.83V39.9099H70.73C81.22 39.9099 89.81 31.6499 89.81 21.5599C89.81 11.4699 81.23 3.2099 70.73 3.2099H63.57V6.8799H60.64V3.2099V0.399902Z" fill="#FF0076"/>
</svg>
