<svg width="179" height="87" viewBox="0 0 179 87" fill="none" xmlns="http://www.w3.org/2000/svg">
<path d="M177.7 43.47H45.1" stroke="white"/>
<path d="M173.7 39.74L177.7 43.47L173.7 47.1899" stroke="white"/>
<path d="M43.1 45.47C44.2045 45.47 45.1 44.5745 45.1 43.47C45.1 42.3654 44.2045 41.47 43.1 41.47C41.9954 41.47 41.1 42.3654 41.1 43.47C41.1 44.5745 41.9954 45.47 43.1 45.47Z" stroke="white"/>
<path d="M85.59 43.4598C85.59 35.0957 83.1098 26.9193 78.4629 19.9647C73.816 13.0102 67.2112 7.58987 59.4837 4.38904C51.7562 1.18821 43.2531 0.350775 35.0497 1.98254C26.8462 3.61431 19.3108 7.64191 13.3965 13.5563C7.48211 19.4706 3.45439 27.0061 1.82262 35.2096C0.190847 43.4131 1.02834 51.9162 4.22917 59.6437C7.43 67.3712 12.8504 73.9758 19.8049 78.6227C26.7595 83.2696 34.9359 85.7499 43.3 85.7499C48.854 85.7512 54.3538 84.6581 59.4853 82.5333C64.6167 80.4085 69.2792 77.2936 73.2065 73.3663C77.1337 69.4391 80.2488 64.7766 82.3736 59.6451C84.4984 54.5137 85.5913 49.0138 85.59 43.4598V43.4598Z" stroke="white"/>
</svg>
