<svg width="104" height="104" viewBox="0 0 104 104" fill="none" xmlns="http://www.w3.org/2000/svg">
<path d="M26.33 0.910156H50.07C79.49 0.910156 103.56 24.0501 103.56 52.3401C103.56 80.6301 79.49 103.77 50.07 103.77H0.140015V96.9202H0.220001V26.2601H47.22C62 26.2601 74.09 37.8801 74.09 52.0901C74.09 66.3001 62 77.9302 47.22 77.9302H26.36V41.6001H33.48V71.1501H48.15C59.05 71.1501 67.98 62.5701 67.98 52.0901C67.98 41.6101 59.05 33.0901 48.15 33.0901H7.34V96.9701H50.88C76.38 96.9701 97.25 76.9101 97.25 52.3901C97.25 27.8701 76.38 7.80017 50.88 7.80017H33.48V16.6901H26.36V7.80017L26.33 0.910156Z" fill="#FF0076"/>
</svg>
